HIERARCHY
ROOT Hips
{
	OFFSET 0.00000 0.00000 0.00000
	CHANNELS 6 Xposition Yposition Zposition Yrotation Zrotation Xrotation 
	JOINT Lumbar
	{
		OFFSET 0 0 0
		CHANNELS 3 Zrotation Xrotation Yrotation
		JOINT Neck
		{
			OFFSET 0.00 0.2701 0.00
			CHANNELS 3 Zrotation Xrotation Yrotation
			End Site
			{
				OFFSET 0.00 0.1379 0.00
			}
		}
		JOINT RightShoulder
		{
			OFFSET 0.0119 0.2289 0.1181
			CHANNELS 3 Zrotation Xrotation Yrotation
			JOINT RightElbow
			{
				OFFSET 0.00 -0.1475 0.00
				CHANNELS 2 Zrotation Yrotation
				JOINT RightWrist
				{
					OFFSET 0.00 -0.1605 0.00
					CHANNELS 2 Zrotation Xrotation
					End Site
					{
						OFFSET 0.0040 -0.1068 0.0006
					}
				}
			}
		}
		JOINT LeftShoulder
		{
			OFFSET 0.0119 0.2289 -0.1181
			CHANNELS 3 Zrotation Xrotation Yrotation
			JOINT LeftElbow
			{
				OFFSET 0.00 -0.1475 0.00
				CHANNELS 2 Zrotation Yrotation
				JOINT LeftWrist
				{
					OFFSET 0.00 -0.1605 0.00
					CHANNELS 2 Zrotation Xrotation
					End Site
					{
						OFFSET 0.0040 -0.1068 -0.0006
					}
				}
			}
		}
	}
	JOINT RightHip
	{
		OFFSET 0.0316 -0.0424 0.0458
		CHANNELS 3 Zrotation Xrotation Yrotation
		JOINT RightKnee
		{
			OFFSET 0.00 -0.2438 0.00
			CHANNELS 1 Zrotation
			JOINT RightAnkle
			{
				OFFSET 0.00 -0.2449 0.00
				CHANNELS 3 Zrotation Xrotation Yrotation
				End Site
				{
					OFFSET 0.1237 -0.0542 0.0051
				}
			}
		}
	}
	JOINT LeftHip
	{
		OFFSET 0.0316 -0.0424 -0.0458
		CHANNELS 3 Zrotation Xrotation Yrotation
		JOINT LeftKnee
		{
			OFFSET 0.00 -0.2438 0.00
			CHANNELS 1 Zrotation
			JOINT LeftAnkle
			{
				OFFSET 0.00 -0.2449 0.00
				CHANNELS 3 Zrotation Xrotation Yrotation
				End Site
				{
					OFFSET 0.1237 -0.0542 -0.0051
				}
			}
		}
	}
}
MOTION
Frames: 16
Frame Time: 0.02
0.16539 0.02816 -0.14735 105.00958 -30.69633 -18.84168 35.28094 0.07636 -6.36829 -1.61414 24.47096 -0.83079 49.74791 11.4007 24.62432 136.85467 127.82581 -59.20652 -8.39339 -23.88832 9.95855 -5.22434 50.58099 -57.46247 -21.89449 -0.80405 29.07453 9.03278 -18.42253 -17.56653 -6.33664 -2.10529 -1.71817 47.32974 16.0589 -6.90596 -60.51747 -11.34766 0.87012 1.19881
0.16647 0.02759 -0.14334 104.97146 -30.89165 -18.78674 34.01273 0.45782 -6.2867 -0.89206 24.40532 -0.83079 49.21432 11.40267 25.15616 136.99316 127.50997 -59.23749 -8.33318 -23.23656 9.84113 -4.69032 50.07689 -54.52508 -22.69376 -1.24081 29.75989 8.98646 -18.24349 -17.6314 -6.33091 -2.16806 -1.75035 49.42644 15.49421 -6.41209 -62.61296 -11.35397 1.18578 1.37627
0.16755 0.02701 -0.13899 104.92134 -31.11049 -18.75011 32.63165 0.86053 -6.2463 -0.0573 24.35422 -0.83079 48.67466 11.40147 25.85875 137.15912 127.14144 -59.40834 -8.26342 -22.5285 9.74063 -4.24549 49.498 -50.84389 -23.77555 -1.77297 30.50474 8.94111 -18.02805 -17.69666 -6.33073 -2.24111 -1.78682 51.60079 14.86404 -5.86468 -64.65103 -11.26209 1.55436 1.58059
0.16863 0.02647 -0.13477 104.88483 -31.34156 -18.70275 31.3125 1.24818 -6.19415 0.74364 24.29975 -0.83079 48.13325 11.40181 26.48814 137.30824 126.80204 -59.50674 -8.20652 -21.83013 9.63303 -3.77867 48.94561 -47.73985 -24.64994 -2.22876 31.24664 8.89024 -17.81003 -17.76041 -6.32946 -2.31235 -1.82296 53.74104 14.26185 -5.32673 -66.61695 -11.20357 1.88382 1.76381
0.16972 0.0258 -0.13062 104.81392 -31.47458 -18.66678 29.93971 1.6617 -6.11265 1.47397 24.23295 -0.83079 47.60137 11.40185 27.10195 137.47822 126.44043 -59.64348 -8.11643 -21.19789 9.5228 -3.23006 48.42397 -43.64863 -25.85043 -2.82089 31.88882 8.8623 -17.67082 -17.83112 -6.32078 -2.37156 -1.85232 55.8927 13.66783 -4.84694 -69.02477 -11.19323 2.27681 1.98452
0.17077 0.02539 -0.12627 104.81143 -31.81859 -18.61128 28.65742 2.02485 -6.10147 2.3768 24.19495 -0.83079 47.05487 11.40169 27.78671 137.60975 126.11362 -59.73343 -8.09061 -20.41477 9.42143 -2.87422 47.82175 -41.4096 -26.44824 -3.15543 32.75201 8.78575 -17.36331 -17.88675 -6.32931 -2.45771 -1.89651 58.02919 13.04084 -4.23612 -70.47851 -11.06032 2.55068 2.13393
0.17171 0.02569 -0.12135 105.00447 -32.7303 -18.49442 27.62546 2.24837 -6.28101 3.73099 24.23125 -0.83079 46.43278 11.40182 28.63707 137.63576 125.88371 -59.65864 -8.2639 -19.2311 9.34946 -3.03207 47.00509 -44.70142 -25.2306 -2.7232 34.2109 8.58191 -16.55291 -17.90284 -6.3846 -2.62263 -1.98396 60.14765 12.34169 -3.2654 -69.43337 -10.59617 2.47529 2.07522
0.17259 0.02625 -0.11624 105.26561 -33.85457 -18.35822 26.69454 2.41938 -6.52833 5.25357 24.29643 -0.83079 45.80424 11.40176 29.55067 137.62062 125.69236 -59.53258 -8.49868 -17.89781 9.28455 -3.38172 46.11251 -49.84002 -23.41175 -2.03427 35.88905 8.3283 -15.58242 -17.90332 -6.45703 -2.81314 -2.08557 62.23791 11.61179 -2.16852 -67.40797 -10.01484 2.27956 1.9447
0.17349 0.0267 -0.11126 105.49391 -34.88858 -18.23181 25.73594 2.61085 -6.74093 6.69761 24.34888 -0.83079 45.20315 11.40179 30.42737 137.61903 125.49169 -59.43005 -8.69221 -16.63098 9.21025 -3.64078 45.26049 -53.97809 -21.92226 -1.48416 37.46766 8.09181 -14.71631 -17.90911 -6.5215 -2.9875 -2.17852 64.31179 10.89303 -1.13559 -65.74554 -9.4979 2.14356 1.85004
0.17443 0.02712 -0.10609 105.73196 -35.89979 -18.09932 24.69583 2.81691 -6.9733 8.1561 24.39895 -0.83079 44.49684 11.40195 31.34397 137.63962 125.2563 -59.32925 -8.94068 -15.36638 9.16148 -3.91345 44.37743 -58.767 -20.20662 -0.84454 39.05142 7.87591 -13.71723 -17.92178 -6.58715 -3.18124 -2.28102 66.51378 10.18081 -0.06753 -64.41767 -8.93072 1.98781 1.74252
0.17527 0.02767 -0.10128 105.96328 -37.00473 -17.97783 23.85153 2.98053 -7.17781 9.62056 24.46222 -0.83079 44.00998 11.40153 32.19096 137.60462 125.10088 -59.21358 -9.09058 -14.06521 9.06244 -4.20708 43.54555 -62.65356 -18.8143 -0.32828 40.67139 7.60866 -12.95532 -17.91728 -6.65398 -3.34065 -2.36694 68.43877 9.45249 0.95 -62.17605 -8.44141 1.84435 1.64461
0.17584 0.02857 -0.09737 106.1831 -38.34982 -17.86429 23.51964 3.03335 -7.30799 11.08026 24.54142 -0.83079 44.11584 11.4022 32.82343 137.41972 125.17682 -59.04539 -8.94344 -12.67583 8.81046 -4.46902 42.8436 -63.55715 -18.47135 -0.22262 42.37398 7.18275 -12.90796 -17.86151 -6.72315 -3.39803 -2.4035 69.62476 8.65378 1.85327 -57.52154 -8.19816 1.76048 1.58877
0.17632 0.02959 -0.09384 106.38945 -39.77522 -17.76753 23.38265 3.04633 -7.4042 12.53559 24.63554 -0.83079 44.44522 11.40189 33.38413 137.18154 125.3291 -58.86777 -8.69689 -11.25986 8.50996 -4.7526 42.20195 -63.50003 -18.47126 -0.24817 44.09785 6.7123 -13.10195 -17.79036 -6.79226 -3.42 -2.42285 70.52871 7.84671 2.69051 -52.00723 -8.03752 1.69362 1.54534
0.17684 0.03053 -0.09022 106.58644 -41.14238 -17.68074 23.15923 3.08173 -7.50296 13.97961 24.73129 -0.83079 44.6825 11.40022 33.98122 136.97161 125.43273 -58.70954 -8.50227 -9.87158 8.2396 -5.05424 41.5525 -63.91231 -18.30666 -0.20846 45.78858 6.28127 -13.17118 -17.73136 -6.85932 -3.45889 -2.45024 71.54923 7.06549 3.52096 -46.9698 -7.83779 1.62119 1.49741
0.17735 0.0316 -0.08628 106.85111 -42.61025 -17.51875 22.92981 3.09725 -7.65776 15.48685 24.79167 -0.83079 44.88101 11.40584 34.56444 136.74248 125.59383 -58.48593 -8.28112 -8.41088 7.93499 -5.24633 40.81678 -64.24993 -18.15831 -0.18356 47.58826 5.76752 -13.29516 -17.6503 -6.93594 -3.49562 -2.47746 72.6189 6.18921 4.51142 -41.52818 -7.63977 1.53538 1.44211
0.17785 0.03241 -0.08309 106.97079 -43.8828 -17.51795 22.75835 3.1452 -7.68783 16.85774 24.92998 -0.83079 45.21159 11.39642 35.15898 136.54218 125.65634 -58.39682 -8.09103 -7.09827 7.69055 -5.66738 40.27708 -64.49111 -18.0649 -0.16237 49.16044 5.41616 -13.36865 -17.61141 -6.99214 -3.52757 -2.50045 73.51819 5.51044 5.15099 -36.74495 -7.46016 1.48315 1.40613
